<svg xmlns="http://www.w3.org/2000/svg" xmlns:xlink="http://www.w3.org/1999/xlink" width="1080" zoomAndPan="magnify" viewBox="0 0 810 809.999993" height="1080" preserveAspectRatio="xMidYMid meet" version="1.0"><defs><clipPath id="e4c718f40a"><path d="M 110.183594 112.394531 L 699.683594 112.394531 L 699.683594 697.394531 L 110.183594 697.394531 Z M 110.183594 112.394531 " clip-rule="nonzero"/></clipPath></defs><g clip-path="url(#e4c718f40a)"><path stroke-linecap="butt" transform="matrix(0.534635, 0, 0, 0.534635, 83.494226, 83.683492)" fill="none" stroke-linejoin="miter" d="M 1151.359513 463.452004 L 1001.848793 199.713136 L 752.941904 340.821504 L 752.941904 54.695849 L 449.785046 54.695849 L 449.785046 340.317363 L 201.557651 199.033642 L 51.593935 462.509479 L 294.458438 600.739128 L 51.36013 738.552312 L 200.87085 1002.276567 L 449.785046 861.175506 L 449.785046 1147.301161 L 752.941904 1147.301161 L 752.941904 861.69426 L 1001.154686 1002.963368 L 1151.118402 739.494837 L 908.253899 601.265188 Z M 1151.359513 463.452004 " stroke="#2a3d85" stroke-width="2" stroke-opacity="1" stroke-miterlimit="10"/></g><path fill="#14b8a6" d="M 668.015625 483.050781 L 527.703125 404.664062 L 667.585938 325.519531 L 608.363281 220.84375 L 466.125 301.320312 L 466.125 132.914062 L 343.878906 132.914062 L 343.878906 301.96875 L 200.644531 221.953125 L 141.992188 326.949219 L 282.300781 405.332031 L 142.417969 484.480469 L 201.644531 589.152344 L 343.878906 508.675781 L 343.878906 677.082031 L 466.125 677.082031 L 466.125 508.027344 L 609.363281 588.046875 Z M 668.015625 483.050781 " fill-opacity="1" fill-rule="nonzero"/><path fill="#14b8a6" d="M 668.015625 483.050781 L 527.703125 404.664062 L 667.585938 325.519531 L 608.363281 220.84375 L 466.125 301.320312 L 466.125 132.914062 L 343.878906 132.914062 L 343.878906 301.96875 L 200.644531 221.953125 L 141.992188 326.949219 L 282.300781 405.332031 L 142.417969 484.480469 L 201.644531 589.152344 L 343.878906 508.675781 L 343.878906 677.082031 L 466.125 677.082031 L 466.125 508.027344 L 609.363281 588.046875 Z M 668.015625 483.050781 " fill-opacity="1" fill-rule="nonzero"/><path fill="#ffffff" d="M 428.996094 195.300781 L 413.101562 625.675781 C 413.101562 625.675781 412.78125 627.230469 411.375 627.230469 C 409.972656 627.230469 409.652344 625.683594 409.652344 625.683594 L 393.757812 195.300781 C 393.398438 185.574219 400.988281 177.390625 410.726562 177.03125 C 420.453125 176.667969 428.632812 184.265625 428.992188 193.996094 C 429.011719 194.417969 429.007812 194.886719 428.996094 195.300781 Z M 428.996094 195.300781 " fill-opacity="1" fill-rule="nonzero"/><path fill="#ffffff" d="M 393.515625 336.496094 C 393.152344 336.292969 357.105469 315.625 357.109375 265.984375 C 357.109375 253.878906 364.632812 219.324219 398.066406 219.324219 C 401.570312 219.324219 407.390625 220.574219 417.472656 231.390625 C 417.710938 231.648438 418.734375 232.183594 419.484375 232.578125 C 422.246094 234.023438 426.410156 236.207031 426.410156 240.582031 C 426.410156 246.855469 421.792969 250.597656 413.410156 251.121094 C 413.238281 251.128906 413.054688 251.136719 412.839844 251.136719 C 409.378906 251.136719 394.84375 249.113281 389.355469 244.867188 C 387.3125 246.546875 382.683594 252.21875 382.683594 269.097656 C 382.683594 275.957031 386.59375 293.875 394.175781 297.453125 L 395.316406 297.988281 L 396.726562 338.28125 Z M 393.515625 336.496094 " fill-opacity="1" fill-rule="nonzero"/><path fill="#14b8a6" d="M 398.070312 221.398438 C 399.886719 221.398438 405.328125 221.398438 415.957031 232.804688 C 417.535156 234.5 424.339844 236.089844 424.339844 240.582031 C 424.339844 242.136719 424.339844 248.359375 413.277344 249.050781 C 413.148438 249.0625 413 249.066406 412.839844 249.066406 C 408.585938 249.066406 392.644531 246.386719 389.644531 242.265625 C 389.644531 242.265625 380.613281 245.246094 380.613281 269.097656 C 380.613281 275.144531 384.128906 295.003906 393.289062 299.324219 L 394.527344 334.683594 C 394.527344 334.683594 359.183594 314.980469 359.183594 265.984375 C 359.183594 260.015625 363.328125 221.398438 398.070312 221.398438 M 398.070312 217.253906 C 362.941406 217.253906 355.035156 253.34375 355.035156 265.984375 C 355.035156 316.832031 390.980469 337.453125 392.507812 338.308594 L 398.929688 341.886719 L 398.671875 334.535156 L 397.4375 299.179688 L 397.347656 296.652344 L 395.058594 295.574219 C 388.652344 292.550781 384.757812 275.703125 384.757812 269.097656 C 384.757812 255.632812 387.738281 249.851562 389.640625 247.527344 C 396.984375 251.828125 411.175781 253.210938 412.839844 253.210938 C 413.097656 253.210938 413.332031 253.203125 413.539062 253.191406 C 427.03125 252.347656 428.488281 244.09375 428.488281 240.582031 C 428.488281 234.953125 423.453125 232.316406 420.449219 230.738281 C 419.90625 230.457031 419.175781 230.074219 418.902344 229.878906 C 408.324219 218.5625 401.949219 217.253906 398.070312 217.253906 Z M 398.070312 217.253906 " fill-opacity="1" fill-rule="nonzero"/><path fill="#ffffff" d="M 397.296875 464.585938 C 396.492188 464.585938 395.722656 464.261719 395.128906 463.671875 C 379.007812 447.542969 378.539062 426.628906 378.539062 424.292969 C 378.539062 403.929688 392.824219 388.453125 396.652344 385.421875 C 400.511719 382.363281 420.902344 360.410156 422.300781 358.640625 C 425.898438 354.082031 425.367188 351.445312 425.359375 351.417969 L 425.296875 351.140625 L 425.292969 350.769531 L 427.070312 318.269531 L 429.414062 318.738281 C 450.851562 323.023438 453.351562 345.429688 452.84375 351.195312 C 451.238281 369.585938 439.714844 380.429688 439.222656 380.882812 C 434.550781 385.554688 429.582031 390.175781 424.777344 394.640625 C 418.296875 400.660156 411.601562 406.882812 405.464844 413.410156 L 405.128906 413.765625 C 403.242188 415.769531 399.308594 419.933594 399.449219 422.628906 C 399.453125 422.664062 401.472656 461.601562 401.472656 461.601562 L 401.0625 462.1875 C 400.667969 462.75 399.226562 464.585938 397.296875 464.585938 Z M 397.296875 464.585938 " fill-opacity="1" fill-rule="nonzero"/><path fill="#14b8a6" d="M 429.007812 320.769531 C 449.742188 324.917969 451.144531 346.871094 450.78125 351.015625 C 449.230469 368.816406 437.816406 379.363281 437.816406 379.363281 C 426.734375 390.449219 414.695312 400.558594 403.949219 411.992188 C 401.664062 414.425781 397.1875 418.976562 397.378906 422.734375 C 397.378906 422.777344 399.367188 460.992188 399.367188 460.992188 C 399.367188 460.992188 398.300781 462.511719 397.296875 462.511719 C 397.058594 462.511719 396.816406 462.421875 396.597656 462.203125 C 381.5625 447.167969 380.613281 427.410156 380.613281 424.292969 C 380.613281 405.457031 393.792969 390.332031 397.945312 387.046875 C 402.085938 383.761719 422.585938 361.625 423.925781 359.925781 C 428.394531 354.257812 427.363281 350.882812 427.363281 350.882812 L 429.007812 320.769531 M 425.125 315.765625 L 424.867188 320.546875 L 423.222656 350.660156 L 423.160156 351.769531 L 423.3125 351.984375 C 423.277344 352.601562 422.964844 354.453125 420.675781 357.355469 C 419.335938 359.015625 399.179688 380.773438 395.363281 383.792969 C 391.375 386.957031 376.464844 403.097656 376.464844 424.292969 C 376.464844 426.714844 376.949219 448.417969 393.664062 465.132812 C 394.644531 466.121094 395.9375 466.65625 397.296875 466.65625 C 400.148438 466.65625 402.066406 464.367188 402.757812 463.378906 L 403.582031 462.207031 L 403.507812 460.78125 C 403.507812 460.78125 401.519531 422.558594 401.519531 422.519531 C 401.460938 421.320312 403.179688 418.855469 406.636719 415.1875 L 406.976562 414.832031 C 413.066406 408.355469 419.734375 402.152344 426.1875 396.160156 C 430.992188 391.695312 435.960938 387.082031 440.703125 382.335938 C 441.824219 381.277344 453.285156 370.007812 454.910156 351.375 C 455.453125 345.222656 452.769531 321.292969 429.816406 316.703125 Z M 425.125 315.765625 " fill-opacity="1" fill-rule="nonzero"/><path fill="#ffffff" d="M 402.144531 577.007812 C 394.171875 569.371094 391.078125 552.695312 389.917969 546.421875 C 389.800781 545.820312 389.714844 545.335938 389.644531 545 C 388.335938 538.6875 388.082031 533.332031 388.878906 528.625 C 390.636719 518.183594 397.765625 511.175781 404.65625 504.398438 C 407.183594 501.914062 409.796875 499.34375 412.046875 496.679688 C 420.066406 487.183594 423.523438 475.53125 422.613281 461.0625 L 422.429688 458.175781 L 425.226562 458.929688 C 434.324219 461.390625 439.542969 469.871094 439.542969 482.1875 C 439.542969 497.128906 429.265625 506.8125 419.328125 516.175781 C 416.378906 518.957031 413.589844 521.582031 411.09375 524.320312 C 410.824219 524.617188 410.417969 525.042969 409.929688 525.546875 C 406.246094 529.359375 404.289062 531.769531 404.113281 532.691406 C 404.125 532.972656 405.648438 575.4375 405.648438 575.4375 L 405.835938 580.546875 Z M 402.144531 577.007812 " fill-opacity="1" fill-rule="nonzero"/><path fill="#14b8a6" d="M 424.683594 460.929688 C 437.476562 464.390625 437.476562 479.425781 437.476562 482.1875 C 437.476562 500.515625 420.46875 510.949219 409.5625 522.925781 C 408.027344 524.613281 401.960938 530.417969 402.046875 532.65625 C 402.046875 532.683594 403.578125 575.511719 403.578125 575.511719 C 395.28125 567.5625 392.414062 548.136719 391.671875 544.578125 C 390.632812 539.558594 390.0625 534.054688 390.921875 528.96875 C 393.203125 515.433594 405.308594 507.875 413.632812 498.019531 C 422.660156 487.332031 425.554688 474.75 424.683594 460.929688 M 420.179688 455.417969 L 420.542969 461.191406 C 421.421875 475.105469 418.125 486.273438 410.460938 495.339844 C 408.277344 497.933594 405.8125 500.355469 403.203125 502.917969 C 396.078125 509.933594 388.703125 517.179688 386.832031 528.277344 C 385.996094 533.246094 386.246094 538.855469 387.613281 545.421875 C 387.683594 545.746094 387.769531 546.214844 387.878906 546.796875 C 389.757812 556.933594 393.132812 571.246094 400.710938 578.507812 L 408.09375 585.578125 L 407.726562 575.367188 C 407.726562 575.367188 406.382812 538.011719 406.207031 533.054688 C 407.023438 531.546875 410.300781 528.148438 411.421875 526.988281 C 411.929688 526.464844 412.351562 526.027344 412.636719 525.714844 C 415.074219 523.039062 417.835938 520.4375 420.753906 517.6875 C 430.535156 508.46875 441.621094 498.027344 441.621094 482.1875 C 441.621094 468.859375 435.839844 459.652344 425.765625 456.929688 Z M 420.179688 455.417969 " fill-opacity="1" fill-rule="nonzero"/><path fill="#ffffff" d="M 406.085938 615.941406 C 403.867188 615.941406 401.917969 614.609375 401.339844 612.691406 C 400.832031 611.003906 401.492188 609.300781 403.066406 608.257812 C 412.15625 602.234375 417.023438 592.492188 417.949219 590.492188 L 417.949219 577.585938 L 420.023438 577.585938 C 427.878906 577.585938 429.960938 586.148438 429.960938 590.679688 C 429.960938 604.691406 412.480469 614.011719 408.148438 615.570312 C 407.464844 615.816406 406.773438 615.941406 406.085938 615.941406 Z M 406.085938 615.941406 " fill-opacity="1" fill-rule="nonzero"/><path fill="#14b8a6" d="M 420.023438 579.660156 C 426.761719 579.660156 427.886719 588.046875 427.886719 590.679688 C 427.886719 603.769531 410.691406 612.453125 407.449219 613.621094 C 406.972656 613.789062 406.511719 613.871094 406.085938 613.871094 C 403.613281 613.871094 402.191406 611.328125 404.207031 609.988281 C 414.96875 602.859375 420.023438 590.9375 420.023438 590.9375 L 420.023438 579.660156 M 420.023438 575.515625 L 415.875 575.515625 L 415.875 590.019531 C 414.65625 592.53125 410.035156 601.152344 401.917969 606.535156 C 399.585938 608.074219 398.585938 610.726562 399.359375 613.289062 C 400.191406 616.074219 402.960938 618.015625 406.085938 618.015625 C 407.015625 618.015625 407.945312 617.851562 408.855469 617.523438 C 413.75 615.761719 432.035156 606.035156 432.035156 590.679688 C 432.035156 584.582031 428.835938 575.515625 420.023438 575.515625 Z M 420.023438 575.515625 " fill-opacity="1" fill-rule="nonzero"/><path fill="#14b8a6" d="M 410.902344 234.746094 L 407.53125 234.746094 C 406.957031 234.746094 406.496094 234.285156 406.496094 233.710938 C 406.496094 233.140625 406.957031 232.671875 407.53125 232.671875 L 410.902344 232.671875 C 411.472656 232.671875 411.941406 233.140625 411.941406 233.710938 C 411.941406 234.285156 411.472656 234.746094 410.902344 234.746094 Z M 410.902344 234.746094 " fill-opacity="1" fill-rule="nonzero"/><path fill="#14b8a6" d="M 424.832031 240.773438 L 421.464844 240.773438 C 420.890625 240.773438 420.429688 240.3125 420.429688 239.738281 C 420.429688 239.164062 420.890625 238.703125 421.464844 238.703125 L 424.832031 238.703125 C 425.410156 238.703125 425.871094 239.164062 425.871094 239.738281 C 425.871094 240.3125 425.410156 240.773438 424.832031 240.773438 Z M 424.832031 240.773438 " fill-opacity="1" fill-rule="nonzero"/></svg>